HIERARCHY
ROOT Hips
{
  OFFSET 44.201 34.724 -254.719
  CHANNELS 6 Xposition Yposition Zposition Zrotation Xrotation Yrotation
  JOINT LeftUpLeg
  {
    OFFSET 6.836 -5.383 2.172
    CHANNELS 6 Xposition Yposition Zposition Zrotation Xrotation Yrotation
    JOINT LeftLeg
    {
      OFFSET 0.000 -51.700 0.000
      CHANNELS 6 Xposition Yposition Zposition Zrotation Xrotation Yrotation
      JOINT LeftFoot
      {
        OFFSET -0.000 -41.174 -0.000
        CHANNELS 6 Xposition Yposition Zposition Zrotation Xrotation Yrotation
        End Site
        {
          OFFSET 0.000 -7.254 4.188
        }
      }
    }
  }
  JOINT RightUpLeg
  {
    OFFSET -6.087 -5.770 3.918
    CHANNELS 6 Xposition Yposition Zposition Zrotation Xrotation Yrotation
    JOINT RightLeg
    {
      OFFSET -0.000 -46.463 0.000
      CHANNELS 6 Xposition Yposition Zposition Zrotation Xrotation Yrotation
      JOINT RightFoot
      {
        OFFSET 0.000 -43.889 -0.000
        CHANNELS 6 Xposition Yposition Zposition Zrotation Xrotation Yrotation
        End Site
        {
          OFFSET 0.000 -7.208 4.161
        }
      }
    }
  }
  JOINT Spine
  {
    OFFSET 0.000 5.980 -5.980
    CHANNELS 6 Xposition Yposition Zposition Zrotation Xrotation Yrotation
    JOINT LeftShoulder
    {
      OFFSET -0.000 25.762 0.000
      CHANNELS 6 Xposition Yposition Zposition Zrotation Xrotation Yrotation
      JOINT LeftArm
      {
        OFFSET 15.912 0.000 0.000
        CHANNELS 6 Xposition Yposition Zposition Zrotation Xrotation Yrotation
        JOINT LeftForeArm
        {
          OFFSET 24.110 -0.000 0.000
          CHANNELS 6 Xposition Yposition Zposition Zrotation Xrotation Yrotation
          JOINT LeftHand
          {
            OFFSET 23.318 -0.000 -0.000
            CHANNELS 6 Xposition Yposition Zposition Zrotation Xrotation Yrotation
            JOINT LeftHandThumb1
            {
            OFFSET 4.970 -0.620 3.390
            CHANNELS 6 Xposition Yposition Zposition Zrotation Xrotation Yrotation
              JOINT LeftHandThumb2
              {
              OFFSET 2.150 -0.000 0.000
              CHANNELS 6 Xposition Yposition Zposition Zrotation Xrotation Yrotation
                JOINT LeftHandThumb3
                {
                OFFSET 2.200 -0.000 0.000
                CHANNELS 6 Xposition Yposition Zposition Zrotation Xrotation Yrotation
                  JOINT LeftHandThumb4
                  {
                  OFFSET 1.700 -0.000 0.000
                  CHANNELS 6 Xposition Yposition Zposition Zrotation Xrotation Yrotation
                  }
                }
              }
            }
            JOINT LeftHandIndex1
            {
            OFFSET 8.730 0.680 2.070
            CHANNELS 6 Xposition Yposition Zposition Zrotation Xrotation Yrotation
              JOINT LeftHandIndex2
              {
              OFFSET 2.670 -0.000 0.000
              CHANNELS 6 Xposition Yposition Zposition Zrotation Xrotation Yrotation
                JOINT LeftHandIndex3
                {
                OFFSET 2.130 -0.000 0.000
                CHANNELS 6 Xposition Yposition Zposition Zrotation Xrotation Yrotation
                  JOINT LeftHandIndex4
                  {
                  OFFSET 1.800 -0.000 0.000
                  CHANNELS 6 Xposition Yposition Zposition Zrotation Xrotation Yrotation
                  }
                }
              }
            }
            JOINT LeftHandMiddle1
            {
            OFFSET 9.220 0.670 0.550
            CHANNELS 6 Xposition Yposition Zposition Zrotation Xrotation Yrotation
              JOINT LeftHandMiddle2
              {
              OFFSET 2.660 -0.000 0.000
              CHANNELS 6 Xposition Yposition Zposition Zrotation Xrotation Yrotation
                JOINT LeftHandMiddle3
                {
                OFFSET 2.280 -0.000 0.000
                CHANNELS 6 Xposition Yposition Zposition Zrotation Xrotation Yrotation
                  JOINT LeftHandMiddle4
                  {
                  OFFSET 1.500 -0.000 0.000
                  CHANNELS 6 Xposition Yposition Zposition Zrotation Xrotation Yrotation
                  }
                }
              }
            }
            JOINT LeftHandRing1
            {
            OFFSET 9.250 0.670 -1.130
            CHANNELS 6 Xposition Yposition Zposition Zrotation Xrotation Yrotation
              JOINT LeftHandRing2
              {
              OFFSET 2.470 -0.000 0.000
              CHANNELS 6 Xposition Yposition Zposition Zrotation Xrotation Yrotation
                JOINT LeftHandRing3
                {
                OFFSET 2.210 -0.000 0.000
                CHANNELS 6 Xposition Yposition Zposition Zrotation Xrotation Yrotation
                  JOINT LeftHandRing4
                  {
                  OFFSET 1.800 -0.000 0.000
                  CHANNELS 6 Xposition Yposition Zposition Zrotation Xrotation Yrotation
                  }
                }
              }
            }
            JOINT LeftHandPinky1
            {
            OFFSET 9.350 0.660 -2.720
            CHANNELS 6 Xposition Yposition Zposition Zrotation Xrotation Yrotation
              JOINT LeftHandPinky2
              {
              OFFSET 1.630 -0.000 0.000
              CHANNELS 6 Xposition Yposition Zposition Zrotation Xrotation Yrotation
                JOINT LeftHandPinky3
                {
                OFFSET 1.710 -0.000 0.000
                CHANNELS 6 Xposition Yposition Zposition Zrotation Xrotation Yrotation
                  JOINT LeftHandPinky4
                  {
                  OFFSET 1.800 -0.000 0.000
                  CHANNELS 6 Xposition Yposition Zposition Zrotation Xrotation Yrotation
                  }
                }
              }
            }
          }
        }
      }
    }
    JOINT RightShoulder
    {
      OFFSET -0.000 25.762 0.000
      CHANNELS 6 Xposition Yposition Zposition Zrotation Xrotation Yrotation
      JOINT RightArm
      {
        OFFSET -17.782 0.000 -0.000
        CHANNELS 6 Xposition Yposition Zposition Zrotation Xrotation Yrotation
        JOINT RightForeArm
        {
          OFFSET -22.464 0.000 0.000
          CHANNELS 6 Xposition Yposition Zposition Zrotation Xrotation Yrotation
          JOINT RightHand
          {
            OFFSET -22.608 0.000 -0.000
            CHANNELS 6 Xposition Yposition Zposition Zrotation Xrotation Yrotation
            JOINT RightHandThumb1
            {
            OFFSET -4.970 -0.620 3.390
            CHANNELS 6 Xposition Yposition Zposition Zrotation Xrotation Yrotation
              JOINT RightHandThumb2
              {
              OFFSET -2.150 0.000 0.000
              CHANNELS 6 Xposition Yposition Zposition Zrotation Xrotation Yrotation
                JOINT RightHandThumb3
                {
                OFFSET -2.200 0.000 0.000
                CHANNELS 6 Xposition Yposition Zposition Zrotation Xrotation Yrotation
                  JOINT RightHandThumb4
                  {
                  OFFSET -1.700 0.000 0.000
                  CHANNELS 6 Xposition Yposition Zposition Zrotation Xrotation Yrotation
                  }
                }
              }
            }
            JOINT RightHandIndex1
            {
            OFFSET -8.730 0.680 2.070
            CHANNELS 6 Xposition Yposition Zposition Zrotation Xrotation Yrotation
              JOINT RightHandIndex2
              {
              OFFSET -2.670 0.000 0.000
              CHANNELS 6 Xposition Yposition Zposition Zrotation Xrotation Yrotation
                JOINT RightHandIndex3
                {
                OFFSET -2.130 0.000 0.000
                CHANNELS 6 Xposition Yposition Zposition Zrotation Xrotation Yrotation
                  JOINT RightHandIndex4
                  {
                  OFFSET -1.800 0.000 0.000
                  CHANNELS 6 Xposition Yposition Zposition Zrotation Xrotation Yrotation
                  }
                }
              }
            }
            JOINT RightHandMiddle1
            {
            OFFSET -9.220 0.670 0.550
            CHANNELS 6 Xposition Yposition Zposition Zrotation Xrotation Yrotation
              JOINT RightHandMiddle2
              {
              OFFSET -2.660 0.000 0.000
              CHANNELS 6 Xposition Yposition Zposition Zrotation Xrotation Yrotation
                JOINT RightHandMiddle3
                {
                OFFSET -2.280 0.000 0.000
                CHANNELS 6 Xposition Yposition Zposition Zrotation Xrotation Yrotation
                  JOINT RightHandMiddle4
                  {
                  OFFSET -1.500 0.000 0.000
                  CHANNELS 6 Xposition Yposition Zposition Zrotation Xrotation Yrotation
                  }
                }
              }
            }
            JOINT RightHandRing1
            {
            OFFSET -9.250 0.670 -1.130
            CHANNELS 6 Xposition Yposition Zposition Zrotation Xrotation Yrotation
              JOINT RightHandRing2
              {
              OFFSET -2.470 0.000 0.000
              CHANNELS 6 Xposition Yposition Zposition Zrotation Xrotation Yrotation
                JOINT RightHandRing3
                {
                OFFSET -2.210 0.000 0.000
                CHANNELS 6 Xposition Yposition Zposition Zrotation Xrotation Yrotation
                  JOINT RightHandRing4
                  {
                  OFFSET -1.800 0.000 0.000
                  CHANNELS 6 Xposition Yposition Zposition Zrotation Xrotation Yrotation
                  }
                }
              }
            }
            JOINT RightHandPinky1
            {
            OFFSET -9.350 0.660 -2.720
            CHANNELS 6 Xposition Yposition Zposition Zrotation Xrotation Yrotation
              JOINT RightHandPinky2
              {
              OFFSET -1.630 0.000 0.000
              CHANNELS 6 Xposition Yposition Zposition Zrotation Xrotation Yrotation
                JOINT RightHandPinky3
                {
                OFFSET -1.710 0.000 0.000
                CHANNELS 6 Xposition Yposition Zposition Zrotation Xrotation Yrotation
                  JOINT RightHandPinky4
                  {
                  OFFSET -1.800 0.000 0.000
                  CHANNELS 6 Xposition Yposition Zposition Zrotation Xrotation Yrotation
                  }
                }
              }
            }
          }
        }
      }
    }
    JOINT Neck
    {
      OFFSET -0.000 25.762 0.000
      CHANNELS 6 Xposition Yposition Zposition Zrotation Xrotation Yrotation
      JOINT Head
      {
        OFFSET -0.000 31.660 -0.000
        CHANNELS 6 Xposition Yposition Zposition Zrotation Xrotation Yrotation
        End Site
        {
          OFFSET -0.000 0.127 -0.000
        }
      }
    }
  }
}
MOTION
Frames:	5
Frame Time:	0.0333333
49.2622 30.2835 -254.991 16.0266 15.5256 -48.4538 6.22107 -5.4614 -0.692487 -26.174 -38.6015 15.595 2.98023e-06 -50.978 -2.38419e-05 32.4862 10.8037 3.47672e-06 -2.98023e-06 -39.4278 0 -25.2304 1.54998 -15.1175 -5.29294 -4.4866 6.37953 8.00255 12.0654 39.5896 1.45286e-05 -50.3688 4.76837e-05 18.9413 -15.9688 3.55217e-06 -1.19209e-05 -45.5507 -4.76837e-05 -6.79026 -11.041 -6.05495 2.38419e-05 6.5399 -6.53992 5.7469 -21.0334 3.2069 -1.19209e-05 25.7619 7.15256e-05 10.3228 1.02453e-05 -41.1546 14.0429 2.38419e-05 -1.19209e-05 -63.8752 10.6959 -65.1699 25.5887 0 0 -9.57576e-05 -6.54907e-06 -92.3619 23.2655 -3.57628e-05 -1.78814e-05 0.492386 -0.15051 -24.8612 0.0062 0.0497 0.0339 0 0 0 0 0.0215 0 0 0 0 0 0.022 0 0 0 0 0 0.017 0 0 0 0 -0.0068 0.0873 0.0207 0 0 0 0 0.0267 0 0 0 0 0 0.0213 0 0 0 0 0 0.018 0 0 0 0 -0.0067 0.0922 0.0055 0 0 0 0 0.0266 0 0 0 0 0 0.0228 0 0 0 0 0 0.015 0 0 0 0 -0.0067 0.0925 -0.0113 0 0 0 0 0.0247 0 0 0 0 0 0.0221 0 0 0 0 0 0.018 0 0 0 0 -0.0066 0.0935 -0.0272 0 0 0 0 0.0163 0 0 0 0 0 0.0171 0 0 0 0 0 0.018 0 0 0 0 -1.19209e-05 25.7619 7.15256e-05 -8.51957 4.9092e-06 21.0285 -25.7544 -1.19209e-05 -4.76837e-05 71.0121 -46.4023 -28.391 -16.8858 -2.38419e-05 1.19209e-05 -3.88826e-06 7.22215e-06 146.594 -21.7149 2.38419e-05 5.96046e-06 33.3286 -1.39499 -16.8872 -0.0062 0.0497 0.0339 0 0 0 0 0.0215 0 0 0 0 0 0.022 0 0 0 0 0 0.017 0 0 0 0 0.0068 0.0873 0.0207 0 0 0 0 0.0267 0 0 0 0 0 0.0213 0 0 0 0 0 0.018 0 0 0 0 0.0067 0.0922 0.0055 0 0 0 0 0.0266 0 0 0 0 0 0.0228 0 0 0 0 0 0.015 0 0 0 0 0.0067 0.0925 -0.0113 0 0 0 0 0.0247 0 0 0 0 0 0.0221 0 0 0 0 0 0.018 0 0 0 0 0.0066 0.0935 -0.0272 0 0 0 0 0.0163 0 0 0 0 0 0.0171 0 0 0 0 0 0.018 0 0 0 0 -1.19209e-05 25.7619 7.15256e-05 2.13854 -4.0187 0.149959 0 35.7337 2.38419e-05 8.11085e-06 -9.39151e-06 -6.83019e-06 
49.2622 30.2835 -254.991 16.0266 15.5256 -48.4538 6.22107 -5.4614 -0.692487 -26.174 -38.6015 15.595 2.98023e-06 -50.978 -2.38419e-05 32.4862 10.8037 3.47672e-06 -2.98023e-06 -39.4278 0 -25.2304 1.54998 -15.1175 -5.29294 -4.4866 6.37953 8.00255 12.0654 39.5896 1.45286e-05 -50.3688 4.76837e-05 18.9413 -15.9688 3.55217e-06 -1.19209e-05 -45.5507 -4.76837e-05 -6.79026 -11.041 -6.05495 2.38419e-05 6.5399 -6.53992 5.7469 -21.0334 3.2069 -1.19209e-05 25.7619 7.15256e-05 10.3228 1.02453e-05 -41.1546 14.0429 2.38419e-05 -1.19209e-05 -63.8752 10.6959 -65.1699 25.5887 0 0 -9.57576e-05 -6.54907e-06 -92.3619 23.2655 -3.57628e-05 -1.78814e-05 0.492386 -0.15051 -24.8612 0.0062 0.0497 0.0339 0 0 0 0 0.0215 0 0 0 0 0 0.022 0 0 0 0 0 0.017 0 0 0 0 -0.0068 0.0873 0.0207 0 0 0 0 0.0267 0 0 0 0 0 0.0213 0 0 0 0 0 0.018 0 0 0 0 -0.0067 0.0922 0.0055 0 0 0 0 0.0266 0 0 0 0 0 0.0228 0 0 0 0 0 0.015 0 0 0 0 -0.0067 0.0925 -0.0113 0 0 0 0 0.0247 0 0 0 0 0 0.0221 0 0 0 0 0 0.018 0 0 0 0 -0.0066 0.0935 -0.0272 0 0 0 0 0.0163 0 0 0 0 0 0.0171 0 0 0 0 0 0.018 0 0 0 0 -1.19209e-05 25.7619 7.15256e-05 -8.51957 4.9092e-06 21.0285 -25.7544 -1.19209e-05 -4.76837e-05 71.0121 -46.4023 -28.391 -16.8858 -2.38419e-05 1.19209e-05 -3.88826e-06 7.22215e-06 146.594 -21.7149 2.38419e-05 5.96046e-06 33.3286 -1.39499 -16.8872 -0.0062 0.0497 0.0339 0 0 0 0 0.0215 0 0 0 0 0 0.022 0 0 0 0 0 0.017 0 0 0 0 0.0068 0.0873 0.0207 0 0 0 0 0.0267 0 0 0 0 0 0.0213 0 0 0 0 0 0.018 0 0 0 0 0.0067 0.0922 0.0055 0 0 0 0 0.0266 0 0 0 0 0 0.0228 0 0 0 0 0 0.015 0 0 0 0 0.0067 0.0925 -0.0113 0 0 0 0 0.0247 0 0 0 0 0 0.0221 0 0 0 0 0 0.018 0 0 0 0 0.0066 0.0935 -0.0272 0 0 0 0 0.0163 0 0 0 0 0 0.0171 0 0 0 0 0 0.018 0 0 0 0 -1.19209e-05 25.7619 7.15256e-05 2.13854 -4.0187 0.149959 0 35.7337 2.38419e-05 8.11085e-06 -9.39151e-06 -6.83019e-06 
45.7002 33.249 -254.61 14.544 13.5448 -50.0952 7.20991 -6.54037 0.433445 -20.8601 -34.6684 11.3303 5.96046e-06 -50.8021 -7.15256e-05 26.4327 16.3913 0 -2.98023e-05 -39.806 4.76837e-05 -26.5031 0.659306 -16.3365 -6.23035 -5.75905 6.30918 2.25185 8.90609 26.4769 -2.38419e-05 -50.251 -7.15256e-05 31.8282 -5.757 0 0 -42.4455 0 -16.6099 -6.48006 -10.9866 4.76837e-05 6.36093 -6.36091 4.3872 -20.6145 3.09009 -1.19209e-05 25.7619 -2.38419e-05 1.06018 1.00318e-05 -34.3199 14.9563 -1.78814e-05 3.57628e-05 -58.6789 15.4172 -57.7353 24.8859 2.38419e-05 0 1.23213e-05 -1.14513e-05 -103.34 24.8375 0 5.96046e-06 -0.0746038 -0.0177767 -15.6907 0.0062 0.0497 0.0339 0 0 0 0 0.0215 0 0 0 0 0 0.022 0 0 0 0 0 0.017 0 0 0 0 -0.0068 0.0873 0.0207 0 0 0 0 0.0267 0 0 0 0 0 0.0213 0 0 0 0 0 0.018 0 0 0 0 -0.0067 0.0922 0.0055 0 0 0 0 0.0266 0 0 0 0 0 0.0228 0 0 0 0 0 0.015 0 0 0 0 -0.0067 0.0925 -0.0113 0 0 0 0 0.0247 0 0 0 0 0 0.0221 0 0 0 0 0 0.018 0 0 0 0 -0.0066 0.0935 -0.0272 0 0 0 0 0.0163 0 0 0 0 0 0.0171 0 0 0 0 0 0.018 0 0 0 0 -1.19209e-05 25.7619 -2.38419e-05 -1.64581 5.01592e-06 20.4237 -24.165 -5.96046e-06 0 54.8879 -40.4689 -36.4688 -17.583 4.76837e-05 -2.38419e-05 -4.06872e-06 7.33798e-06 148.014 -21.9737 -9.53674e-05 -8.9407e-06 26.5615 -0.440322 -13.8569 -0.0062 0.0497 0.0339 0 0 0 0 0.0215 0 0 0 0 0 0.022 0 0 0 0 0 0.017 0 0 0 0 0.0068 0.0873 0.0207 0 0 0 0 0.0267 0 0 0 0 0 0.0213 0 0 0 0 0 0.018 0 0 0 0 0.0067 0.0922 0.0055 0 0 0 0 0.0266 0 0 0 0 0 0.0228 0 0 0 0 0 0.015 0 0 0 0 0.0067 0.0925 -0.0113 0 0 0 0 0.0247 0 0 0 0 0 0.0221 0 0 0 0 0 0.018 0 0 0 0 0.0066 0.0935 -0.0272 0 0 0 0 0.0163 0 0 0 0 0 0.0171 0 0 0 0 0 0.018 0 0 0 0 -1.19209e-05 25.7619 -2.38419e-05 6.51477 -0.058919 0.00673116 -1.19209e-05 34.6409 2.38419e-05 8.96462e-06 -7.68396e-06 5.12264e-06 
44.2234 35.0718 -254.575 13.8031 12.7536 -50.6716 8.04076 -7.09872 1.44925 -18.9975 -32.216 5.92462 1.19209e-05 -50.9836 4.76837e-05 22.4518 18.99 5.41748e-06 3.57628e-05 -40.0561 -4.76837e-05 -25.6359 -1.38387 -16.6389 -7.05175 -6.75248 5.98046 1.75633 8.60567 16.8014 2.38419e-05 -51.3245 0 31.4296 -1.11841 5.12362e-06 -3.57628e-05 -40.1959 -2.38419e-05 -22.9053 -16.5119 -18.5192 -2.38419e-05 6.27298 -6.27296 3.84785 -20.3864 2.97209 2.38419e-05 25.7619 -4.76837e-05 -3.75559 1.28866e-05 -31.3653 15.5669 -5.96046e-06 5.96046e-06 -53.8964 17.0233 -54.6651 24.2234 -2.38419e-05 0 5.73886e-05 -6.25742e-06 -106.287 25.4108 0 -1.19209e-05 -6.11647 0.414902 -8.78325 0.0062 0.0497 0.0339 0 0 0 0 0.0215 0 0 0 0 0 0.022 0 0 0 0 0 0.017 0 0 0 0 -0.0068 0.0873 0.0207 0 0 0 0 0.0267 0 0 0 0 0 0.0213 0 0 0 0 0 0.018 0 0 0 0 -0.0067 0.0922 0.0055 0 0 0 0 0.0266 0 0 0 0 0 0.0228 0 0 0 0 0 0.015 0 0 0 0 -0.0067 0.0925 -0.0113 0 0 0 0 0.0247 0 0 0 0 0 0.0221 0 0 0 0 0 0.018 0 0 0 0 -0.0066 0.0935 -0.0272 0 0 0 0 0.0163 0 0 0 0 0 0.0171 0 0 0 0 0 0.018 0 0 0 0 2.38419e-05 25.7619 -4.76837e-05 2.19434 4.48231e-06 20.1186 -23.556 -1.19209e-05 -2.38419e-05 48.3159 -40.952 -38 -17.9304 0 2.98023e-05 -3.96831e-06 7.27431e-06 147.227 -21.6846 4.76837e-05 1.49012e-05 22.5538 0.0307484 -9.93658 -0.0062 0.0497 0.0339 0 0 0 0 0.0215 0 0 0 0 0 0.022 0 0 0 0 0 0.017 0 0 0 0 0.0068 0.0873 0.0207 0 0 0 0 0.0267 0 0 0 0 0 0.0213 0 0 0 0 0 0.018 0 0 0 0 0.0067 0.0922 0.0055 0 0 0 0 0.0266 0 0 0 0 0 0.0228 0 0 0 0 0 0.015 0 0 0 0 0.0067 0.0925 -0.0113 0 0 0 0 0.0247 0 0 0 0 0 0.0221 0 0 0 0 0 0.018 0 0 0 0 0.0066 0.0935 -0.0272 0 0 0 0 0.0163 0 0 0 0 0 0.0171 0 0 0 0 0 0.018 0 0 0 0 2.38419e-05 25.7619 -4.76837e-05 8.02836 1.56866 -0.221209 0 34.0437 2.38419e-05 1.02453e-05 -1.10991e-05 0 
44.2234 35.0718 -254.575 13.8031 12.7536 -50.6716 8.04076 -7.09872 1.44925 -18.9975 -32.216 5.92462 1.19209e-05 -50.9836 4.76837e-05 22.4518 18.99 5.41748e-06 3.57628e-05 -40.0561 -4.76837e-05 -25.6359 -1.38387 -16.6389 -7.05175 -6.75248 5.98046 1.75633 8.60567 16.8014 2.38419e-05 -51.3245 0 31.4296 -1.11841 5.12362e-06 -3.57628e-05 -40.1959 -2.38419e-05 -22.9053 -16.5119 -18.5192 -2.38419e-05 6.27298 -6.27296 3.84785 -20.3864 2.97209 2.38419e-05 25.7619 -4.76837e-05 -3.75559 1.28866e-05 -31.3653 15.5669 -5.96046e-06 5.96046e-06 -53.8964 17.0233 -54.6651 24.2234 -2.38419e-05 0 5.73886e-05 -6.25742e-06 -106.287 25.4108 0 -1.19209e-05 -6.11647 0.414902 -8.78325 0.0062 0.0497 0.0339 0 0 0 0 0.0215 0 0 0 0 0 0.022 0 0 0 0 0 0.017 0 0 0 0 -0.0068 0.0873 0.0207 0 0 0 0 0.0267 0 0 0 0 0 0.0213 0 0 0 0 0 0.018 0 0 0 0 -0.0067 0.0922 0.0055 0 0 0 0 0.0266 0 0 0 0 0 0.0228 0 0 0 0 0 0.015 0 0 0 0 -0.0067 0.0925 -0.0113 0 0 0 0 0.0247 0 0 0 0 0 0.0221 0 0 0 0 0 0.018 0 0 0 0 -0.0066 0.0935 -0.0272 0 0 0 0 0.0163 0 0 0 0 0 0.0171 0 0 0 0 0 0.018 0 0 0 0 2.38419e-05 25.7619 -4.76837e-05 2.19434 4.48231e-06 20.1186 -23.556 -1.19209e-05 -2.38419e-05 48.3159 -40.952 -38 -17.9304 0 2.98023e-05 -3.96831e-06 7.27431e-06 147.227 -21.6846 4.76837e-05 1.49012e-05 22.5538 0.0307484 -9.93658 -0.0062 0.0497 0.0339 0 0 0 0 0.0215 0 0 0 0 0 0.022 0 0 0 0 0 0.017 0 0 0 0 0.0068 0.0873 0.0207 0 0 0 0 0.0267 0 0 0 0 0 0.0213 0 0 0 0 0 0.018 0 0 0 0 0.0067 0.0922 0.0055 0 0 0 0 0.0266 0 0 0 0 0 0.0228 0 0 0 0 0 0.015 0 0 0 0 0.0067 0.0925 -0.0113 0 0 0 0 0.0247 0 0 0 0 0 0.0221 0 0 0 0 0 0.018 0 0 0 0 0.0066 0.0935 -0.0272 0 0 0 0 0.0163 0 0 0 0 0 0.0171 0 0 0 0 0 0.018 0 0 0 0 2.38419e-05 25.7619 -4.76837e-05 8.02836 1.56866 -0.221209 0 34.0437 2.38419e-05 1.02453e-05 -1.10991e-05 0 
